<svg xmlns="http://www.w3.org/2000/svg" width="1600" height="900" viewBox="0 0 1600 900">
  <defs>
    <linearGradient id="bg2" x1="0" y1="0" x2="1" y2="1">
      <stop offset="0%" stop-color="#0b1320"/>
      <stop offset="100%" stop-color="#06090f"/>
    </linearGradient>
    <linearGradient id="card" x1="0" y1="0" x2="1" y2="1">
      <stop offset="0%" stop-color="#13263a"/>
      <stop offset="100%" stop-color="#0e1724"/>
    </linearGradient>
    <linearGradient id="line" x1="0" y1="0" x2="1" y2="0">
      <stop offset="0%" stop-color="#3bd5ff"/>
      <stop offset="100%" stop-color="#69f0b1"/>
    </linearGradient>
    <filter id="shadow"><feDropShadow dx="0" dy="10" stdDeviation="18" flood-color="#000" flood-opacity="0.35"/></filter>
  </defs>
  <rect width="1600" height="900" fill="url(#bg2)"/>
  <rect x="56" y="56" width="1488" height="788" rx="30" fill="#091421" stroke="#29425d" filter="url(#shadow)"/>
  <rect x="56" y="56" width="1488" height="78" rx="30" fill="#0d1a2a"/>
  <text x="88" y="104" fill="#d5f6ff" font-family="Inter, Segoe UI, Arial, sans-serif" font-size="30" font-weight="700">AEGIS Operator Console</text>
  <circle cx="1430" cy="96" r="9" fill="#69f0b1"/>
  <text x="1450" y="102" fill="#9fb4c8" font-family="Inter, Segoe UI, Arial, sans-serif" font-size="18">Live</text>
  <rect x="92" y="170" width="248" height="640" rx="22" fill="#0e1a28" stroke="#233a53"/>
  <text x="120" y="215" fill="#9fb4c8" font-family="Inter, Segoe UI, Arial, sans-serif" font-size="18">Targets</text>
  <rect x="120" y="242" width="192" height="42" rx="12" fill="#13273d"/>
  <rect x="120" y="296" width="192" height="42" rx="12" fill="#13273d"/>
  <rect x="120" y="350" width="192" height="42" rx="12" fill="#163248"/>
  <rect x="120" y="404" width="192" height="42" rx="12" fill="#13273d"/>
  <text x="140" y="270" fill="#d8eff8" font-family="Inter, Segoe UI, Arial, sans-serif" font-size="16">corp.example.com</text>
  <text x="140" y="324" fill="#d8eff8" font-family="Inter, Segoe UI, Arial, sans-serif" font-size="16">ai-assistant</text>
  <text x="140" y="378" fill="#d8eff8" font-family="Inter, Segoe UI, Arial, sans-serif" font-size="16">grc-dashboard</text>
  <text x="140" y="432" fill="#d8eff8" font-family="Inter, Segoe UI, Arial, sans-serif" font-size="16">sandbox-api</text>
  <rect x="372" y="170" width="590" height="188" rx="22" fill="url(#card)" stroke="#233a53"/>
  <text x="402" y="212" fill="#9fb4c8" font-family="Inter, Segoe UI, Arial, sans-serif" font-size="16">Risk Summary</text>
  <text x="402" y="265" fill="#ecfbff" font-family="Inter, Segoe UI, Arial, sans-serif" font-size="56" font-weight="800">82</text>
  <text x="505" y="261" fill="#69f0b1" font-family="Inter, Segoe UI, Arial, sans-serif" font-size="20">Moderate exposure</text>
  <rect x="402" y="290" width="176" height="18" rx="9" fill="#24405a"/>
  <rect x="402" y="290" width="120" height="18" rx="9" fill="url(#line)"/>
  <rect x="982" y="170" width="530" height="188" rx="22" fill="url(#card)" stroke="#233a53"/>
  <text x="1012" y="212" fill="#9fb4c8" font-family="Inter, Segoe UI, Arial, sans-serif" font-size="16">Telemetry Stream</text>
  <text x="1012" y="258" fill="#d8eff8" font-family="SFMono-Regular, Consolas, monospace" font-size="18">DNS mapping confirmed</text>
  <text x="1012" y="290" fill="#d8eff8" font-family="SFMono-Regular, Consolas, monospace" font-size="18">Header review in progress</text>
  <text x="1012" y="322" fill="#69f0b1" font-family="SFMono-Regular, Consolas, monospace" font-size="18">Compliance evidence queued</text>
  <rect x="372" y="386" width="530" height="424" rx="22" fill="#0f1b2a" stroke="#233a53"/>
  <text x="402" y="430" fill="#9fb4c8" font-family="Inter, Segoe UI, Arial, sans-serif" font-size="16">Scan Timeline</text>
  <path d="M410 748L500 662L580 692L660 608L742 648L840 560" fill="none" stroke="url(#line)" stroke-width="6" stroke-linecap="round" stroke-linejoin="round"/>
  <circle cx="410" cy="748" r="7" fill="#3bd5ff"/>
  <circle cx="500" cy="662" r="7" fill="#3bd5ff"/>
  <circle cx="580" cy="692" r="7" fill="#3bd5ff"/>
  <circle cx="660" cy="608" r="7" fill="#3bd5ff"/>
  <circle cx="742" cy="648" r="7" fill="#3bd5ff"/>
  <circle cx="840" cy="560" r="7" fill="#69f0b1"/>
  <rect x="982" y="386" width="530" height="424" rx="22" fill="#0f1b2a" stroke="#233a53"/>
  <text x="1012" y="430" fill="#9fb4c8" font-family="Inter, Segoe UI, Arial, sans-serif" font-size="16">Action Queue</text>
  <rect x="1012" y="466" width="470" height="56" rx="14" fill="#13263a"/>
  <rect x="1012" y="536" width="470" height="56" rx="14" fill="#13263a"/>
  <rect x="1012" y="606" width="470" height="56" rx="14" fill="#13263a"/>
  <text x="1040" y="501" fill="#ecfbff" font-family="Inter, Segoe UI, Arial, sans-serif" font-size="18">Review prompt injection defenses</text>
  <text x="1040" y="571" fill="#ecfbff" font-family="Inter, Segoe UI, Arial, sans-serif" font-size="18">Validate transport headers</text>
  <text x="1040" y="641" fill="#ecfbff" font-family="Inter, Segoe UI, Arial, sans-serif" font-size="18">Generate audit-ready evidence</text>
</svg>
