<svg xmlns="http://www.w3.org/2000/svg" width="1600" height="900" viewBox="0 0 1600 900">
  <defs>
    <linearGradient id="bg" x1="0" y1="0" x2="1" y2="1">
      <stop offset="0%" stop-color="#06111f"/>
      <stop offset="60%" stop-color="#08192c"/>
      <stop offset="100%" stop-color="#03070d"/>
    </linearGradient>
    <linearGradient id="accent" x1="0" y1="0" x2="1" y2="0">
      <stop offset="0%" stop-color="#41d7ff"/>
      <stop offset="50%" stop-color="#5eead4"/>
      <stop offset="100%" stop-color="#9bffb2"/>
    </linearGradient>
    <radialGradient id="glow" cx="50%" cy="45%" r="50%">
      <stop offset="0%" stop-color="#7ee7ff" stop-opacity="0.28"/>
      <stop offset="100%" stop-color="#7ee7ff" stop-opacity="0"/>
    </radialGradient>
    <pattern id="grid" width="80" height="80" patternUnits="userSpaceOnUse">
      <path d="M80 0H0V80" fill="none" stroke="#8ecbff" stroke-opacity="0.08" stroke-width="1"/>
    </pattern>
    <filter id="blur">
      <feGaussianBlur stdDeviation="24"/>
    </filter>
  </defs>
  <rect width="1600" height="900" fill="url(#bg)"/>
  <rect width="1600" height="900" fill="url(#grid)"/>
  <circle cx="1200" cy="240" r="240" fill="url(#glow)" filter="url(#blur)"/>
  <circle cx="420" cy="720" r="220" fill="#25d0c7" fill-opacity="0.08" filter="url(#blur)"/>
  <g opacity="0.9">
    <rect x="110" y="110" width="1380" height="680" rx="28" fill="#091622" stroke="#2b4763" stroke-opacity="0.7"/>
    <rect x="110" y="110" width="1380" height="88" rx="28" fill="#0d2233" opacity="0.92"/>
    <text x="150" y="166" fill="#d7f7ff" font-family="Inter, Segoe UI, Arial, sans-serif" font-size="34" font-weight="700">AEGIS</text>
    <text x="150" y="235" fill="#f0fbff" font-family="Inter, Segoe UI, Arial, sans-serif" font-size="64" font-weight="800">Agentic Security Auditor</text>
    <text x="150" y="288" fill="#a4c4d6" font-family="Inter, Segoe UI, Arial, sans-serif" font-size="28">Multi-agent reconnaissance, AI risk analysis, and compliance evidence generation</text>
    <rect x="150" y="340" width="290" height="54" rx="27" fill="url(#accent)"/>
    <text x="188" y="377" fill="#05111b" font-family="Inter, Segoe UI, Arial, sans-serif" font-size="24" font-weight="700">Continuous Audit Flow</text>
  </g>
  <g>
    <rect x="850" y="280" width="430" height="250" rx="18" fill="#0f1c2b" stroke="#35506b"/>
    <rect x="875" y="310" width="120" height="16" rx="8" fill="#39d0ff"/>
    <rect x="875" y="340" width="320" height="14" rx="7" fill="#26405a"/>
    <rect x="875" y="370" width="260" height="14" rx="7" fill="#26405a"/>
    <rect x="875" y="400" width="180" height="14" rx="7" fill="#26405a"/>
    <circle cx="1165" cy="365" r="54" fill="#23c5a7" fill-opacity="0.12" stroke="#4ce4c2"/>
    <path d="M1125 365h80M1165 325v80" stroke="#4ce4c2" stroke-width="4" stroke-linecap="round"/>
    <text x="875" y="455" fill="#c5dce8" font-family="Inter, Segoe UI, Arial, sans-serif" font-size="18">Realtime operator telemetry</text>
  </g>
  <g>
    <circle cx="520" cy="610" r="120" fill="none" stroke="#36e0ff" stroke-opacity="0.22" stroke-width="2"/>
    <circle cx="520" cy="610" r="70" fill="none" stroke="#36e0ff" stroke-opacity="0.45" stroke-width="2"/>
    <circle cx="520" cy="610" r="18" fill="#7fefff"/>
    <path d="M520 490L640 560L632 690L520 730L406 690L398 560Z" fill="none" stroke="url(#accent)" stroke-width="3"/>
    <circle cx="398" cy="560" r="6" fill="#9bffb2"/>
    <circle cx="640" cy="560" r="6" fill="#9bffb2"/>
    <circle cx="632" cy="690" r="6" fill="#9bffb2"/>
    <circle cx="406" cy="690" r="6" fill="#9bffb2"/>
  </g>
</svg>
