<svg xmlns="http://www.w3.org/2000/svg" width="1600" height="900" viewBox="0 0 1600 900">
  <defs>
    <linearGradient id="bg3" x1="0" y1="0" x2="1" y2="1">
      <stop offset="0%" stop-color="#07121e"/>
      <stop offset="100%" stop-color="#04070b"/>
    </linearGradient>
    <linearGradient id="panel" x1="0" y1="0" x2="1" y2="1">
      <stop offset="0%" stop-color="#12263a"/>
      <stop offset="100%" stop-color="#0c1521"/>
    </linearGradient>
    <linearGradient id="code" x1="0" y1="0" x2="1" y2="0">
      <stop offset="0%" stop-color="#2dd4bf"/>
      <stop offset="100%" stop-color="#60a5fa"/>
    </linearGradient>
    <filter id="soft"><feDropShadow dx="0" dy="12" stdDeviation="18" flood-color="#000" flood-opacity="0.35"/></filter>
  </defs>
  <rect width="1600" height="900" fill="url(#bg3)"/>
  <rect x="60" y="60" width="1480" height="780" rx="28" fill="#091421" stroke="#24405a" filter="url(#soft)"/>
  <text x="96" y="112" fill="#d7f7ff" font-family="Inter, Segoe UI, Arial, sans-serif" font-size="30" font-weight="700">Remediation and Evidence Review</text>
  <rect x="96" y="154" width="410" height="650" rx="24" fill="url(#panel)" stroke="#24405a"/>
  <text x="126" y="200" fill="#9fb4c8" font-family="Inter, Segoe UI, Arial, sans-serif" font-size="16">Findings</text>
  <rect x="126" y="228" width="350" height="84" rx="16" fill="#13263a"/>
  <rect x="126" y="326" width="350" height="84" rx="16" fill="#13263a"/>
  <rect x="126" y="424" width="350" height="84" rx="16" fill="#17324a"/>
  <text x="150" y="263" fill="#ecfbff" font-family="Inter, Segoe UI, Arial, sans-serif" font-size="18">Missing CSP header</text>
  <text x="150" y="361" fill="#ecfbff" font-family="Inter, Segoe UI, Arial, sans-serif" font-size="18">Verbose stack traces</text>
  <text x="150" y="459" fill="#ecfbff" font-family="Inter, Segoe UI, Arial, sans-serif" font-size="18">Indirect prompt injection</text>
  <rect x="126" y="548" width="350" height="220" rx="18" fill="#0d1a29" stroke="#233a53"/>
  <text x="150" y="587" fill="#9fb4c8" font-family="Inter, Segoe UI, Arial, sans-serif" font-size="16">Compliance Map</text>
  <text x="150" y="632" fill="#69f0b1" font-family="Inter, Segoe UI, Arial, sans-serif" font-size="18">SOC 2  CC7.1</text>
  <text x="150" y="668" fill="#69f0b1" font-family="Inter, Segoe UI, Arial, sans-serif" font-size="18">ISO 27001  A.8.28</text>
  <text x="150" y="704" fill="#69f0b1" font-family="Inter, Segoe UI, Arial, sans-serif" font-size="18">NIST AI RMF  Govern 1.2</text>
  <rect x="540" y="154" width="964" height="650" rx="24" fill="url(#panel)" stroke="#24405a"/>
  <text x="572" y="200" fill="#9fb4c8" font-family="Inter, Segoe UI, Arial, sans-serif" font-size="16">Code Remediation Preview</text>
  <rect x="572" y="232" width="900" height="540" rx="18" fill="#07131f" stroke="#20364e"/>
  <rect x="598" y="262" width="848" height="14" rx="7" fill="#26405a"/>
  <rect x="598" y="294" width="710" height="14" rx="7" fill="#26405a"/>
  <rect x="598" y="326" width="780" height="14" rx="7" fill="#26405a"/>
  <rect x="598" y="358" width="630" height="14" rx="7" fill="#26405a"/>
  <rect x="598" y="410" width="846" height="170" rx="14" fill="#0d1c2d"/>
  <rect x="616" y="434" width="520" height="18" rx="9" fill="url(#code)"/>
  <rect x="616" y="468" width="680" height="18" rx="9" fill="#1b324a"/>
  <rect x="616" y="502" width="580" height="18" rx="9" fill="#1b324a"/>
  <rect x="616" y="536" width="760" height="18" rx="9" fill="#1b324a"/>
  <text x="598" y="641" fill="#9fb4c8" font-family="Inter, Segoe UI, Arial, sans-serif" font-size="16">Suggested changes are shown as exact, contextual edits for implementation review.</text>
  <rect x="598" y="676" width="222" height="54" rx="27" fill="#69f0b1"/>
  <text x="634" y="710" fill="#05111b" font-family="Inter, Segoe UI, Arial, sans-serif" font-size="18" font-weight="700">Apply Remediation</text>
</svg>
